<svg xmlns="http://www.w3.org/2000/svg" viewBox="0 0 149.77 94.43"><defs><style>.cls-1,.cls-2{fill:none;stroke:#fff;stroke-miterlimit:10;}.cls-1{stroke-width:0.5px;}.cls-3{font-size:30.08px;}.cls-3,.cls-5{fill:#fff;font-family:OleoScript-Bold, Oleo Script;font-weight:700;}.cls-4{letter-spacing:0em;}.cls-5{font-size:12px;}</style></defs><title>Recurso 4</title><g id="Capa_2" data-name="Capa 2"><g id="Capa_1-2" data-name="Capa 1"><path class="cls-1" d="M109.23,39.34c-.22,0-.37.72-.4.84-.09.31-.15.62-.21.93-.13.63-.22,1.26-.31,1.9q-.27,1.91-.45,3.81"/><path class="cls-1" d="M107.86,46.82c-.35,3.53-.58,7-.73,10.59"/><path class="cls-1" d="M107.91,46.27h0"/><path class="cls-1" d="M109.69,45.56h0"/><path class="cls-1" d="M109.69,45.56c0-1.05,0-2.1,0-3.15,0-.53,0-1-.08-1.58,0-.26,0-.52-.08-.78,0-.11-.09-.7-.28-.71"/><path class="cls-1" d="M108,45.36h0"/><path class="cls-1" d="M108,45.36l1.68.2"/><path class="cls-1" d="M81.73,54.82a10.24,10.24,0,0,1-3.65-2.18c-1.24-1.35-.79-2.62.53-3.66,2-1.57,5.67-2.49,8-2.95"/><path class="cls-1" d="M93.64,57.29c.1-3.22.3-6.43.66-9.64.17-1.61.39-3.2.68-4.79.15-.79.32-1.58.54-2.36A7.38,7.38,0,0,1,96.08,39c.09-.16.27-.51.53-.5"/><path class="cls-2" d="M12,81.33l-.13-2.47"/><path class="cls-1" d="M86.6,46a61.78,61.78,0,0,1,8-1"/><path class="cls-1" d="M107.11,57.41c.14-3.12.33-6.23.61-9.34.13-1.55.29-3.1.49-4.65.1-.77.21-1.54.35-2.31a13.38,13.38,0,0,1,.37-1.64c0-.1.15-.55.33-.54"/><line class="cls-1" x1="149.51" y1="39" x2="149.39" y2="40.61"/><path class="cls-1" d="M115.29,56.24c-8.93,2-24.74,2-33.56-1.42"/><path class="cls-1" d="M149.38,40.61a3.6,3.6,0,0,1-.81,2"/><path class="cls-1" d="M144.17,34.38a7.06,7.06,0,0,1,3.64,1.29,3.77,3.77,0,0,1,1.7,3.33"/><path class="cls-1" d="M25.39,66.78C38.26,62.1,51.16,57.53,63.86,52.4c10.55-4.26,27.21-11.26,36-19.41"/><path class="cls-1" d="M11.92,78.89c-.2-3.47,2.36-6.11,4.84-7.86a36,36,0,0,1,8.64-4.25"/><path class="cls-1" d="M99.82,33c2.08-1.93,6.09-3,8.82-2.63"/><path class="cls-1" d="M109.21,38.93h.05"/><line class="cls-1" x1="108.64" y1="30.36" x2="144.17" y2="34.38"/><path class="cls-1" d="M109.71,45.56a44.88,44.88,0,0,1,7.6,1.61"/><path class="cls-1" d="M148.58,42.64c-7.24,9.43-20.3,17.94-30,24-10.94,6.78-22.17,13-33.36,19.35"/><path class="cls-1" d="M117.31,47.17a16.37,16.37,0,0,1,4,1.75c1.17.75,2.56,2,1.69,3.55-1.19,2.13-5.82,3.34-7.71,3.77"/><path class="cls-1" d="M96.61,38.45l12.6.48"/><path class="cls-1" d="M85.24,85.94c-10.56,6-26.77,8.18-38.38,8.24a86.85,86.85,0,0,1-19.68-2,35.06,35.06,0,0,1-9.27-3.37c-2.71-1.52-5.66-3.89-5.86-7.47"/><path class="cls-1" d="M109.26,38.93c.19,0,.26.65.28.76,0,.27.07.55.09.83,0,.56.06,1.12.07,1.68,0,1.12,0,2.24,0,3.36"/><path class="cls-1" d="M84,78.45c11.09-5.85,22.24-11.58,33.11-17.86,9.57-5.53,22.67-13.5,30-22.43"/><path class="cls-1" d="M100.86,32.68C92,40.93,75.45,47.93,64.79,52.25,52.05,57.42,39.1,62,26.19,66.73"/><line class="cls-1" x1="143.75" y1="34.67" x2="108.15" y2="30.63"/><path class="cls-1" d="M147.08,38.16a2.13,2.13,0,0,1,1.9,1.93"/><path class="cls-1" d="M149,40.09a1.67,1.67,0,0,0,.53-1.08"/><path class="cls-1" d="M147.08,38.16a1.64,1.64,0,0,0-.54-2.54,5.55,5.55,0,0,0-2.79-.95"/><path class="cls-1" d="M85.24,85.94a2.2,2.2,0,0,0,1.05-1.88"/><path class="cls-1" d="M86.29,84.06c11-6.18,22.13-12.27,32.93-18.89,9.48-5.8,22.55-14.21,29.63-23.42"/><path class="cls-1" d="M11.92,78.89a5.16,5.16,0,0,0,1.77,3.42,16,16,0,0,0,5,3.1,44.42,44.42,0,0,0,9.49,2.75,96.43,96.43,0,0,0,19.7,1.51c11.48-.2,27.89-2.36,38.41-8.12"/><path class="cls-1" d="M86.33,81.55c11-6,22.13-12,32.93-18.47,9.58-5.76,22.46-13.9,29.72-23"/><path class="cls-1" d="M26.19,66.73C23,67.88,19,69.58,16.48,72.09c-3.59,3.57-1.6,6.64,2.27,8.8,5.88,3.26,15.29,4.4,21.65,4.76a111.25,111.25,0,0,0,22.26-1c6.78-1,15.16-2.92,21.35-6.17"/><path class="cls-1" d="M12.05,81.36a5.31,5.31,0,0,0,1.76,3.46,16,16,0,0,0,5,3.16,44.07,44.07,0,0,0,9.47,2.81,94.19,94.19,0,0,0,19.69,1.55c11.49-.19,27.85-2.41,38.35-8.28"/><path class="cls-1" d="M25.4,66.78a1.33,1.33,0,0,1,.79,0"/><path class="cls-2" d="M12.05,81.33v0"/><path class="cls-1" d="M148.85,41.75a1.74,1.74,0,0,0,.53-1.13"/><path class="cls-1" d="M148.85,41.75a1.28,1.28,0,0,1-.28.9"/><path class="cls-1" d="M86.29,84.06c0-.83,0-1.67,0-2.51"/><path class="cls-1" d="M143.75,34.67c.08-.12.24-.31.42-.29"/><path class="cls-1" d="M108.15,30.63c-2.14-.26-5.63.5-7.29,2.05"/><path class="cls-1" d="M100.86,32.68a1.15,1.15,0,0,0-1,.31"/><path class="cls-1" d="M86.33,81.55A3.11,3.11,0,0,0,84,78.45"/><path class="cls-1" d="M108.63,30.36c-.24,0-.35.11-.48.27"/><line class="cls-1" x1="148.98" y1="40.09" x2="148.85" y2="41.75"/><path class="cls-1" d="M148.58,42.64c-7.24,9.43-20.3,17.94-30,24-10.94,6.78-22.17,13-33.36,19.35"/><line class="cls-1" x1="108.64" y1="30.36" x2="144.17" y2="34.38"/><path class="cls-1" d="M11.92,78.89c-.2-3.47,2.36-6.11,4.84-7.86a36,36,0,0,1,8.64-4.25"/><path class="cls-1" d="M144.17,34.38a7.06,7.06,0,0,1,3.64,1.29,3.77,3.77,0,0,1,1.7,3.33"/><path class="cls-1" d="M149.39,40.61l.12-1.61-.8-2.31-3-2-37.09-4.31c-2.73-.32-6.74.7-8.82,2.63"/><path class="cls-2" d="M12,81.33l-.13-2.47"/><path class="cls-1" d="M85.24,85.94c-10.56,6-26.77,8.18-38.38,8.24a86.85,86.85,0,0,1-19.68-2,35.06,35.06,0,0,1-9.27-3.37c-2.71-1.52-5.66-3.89-5.86-7.47"/><path class="cls-1" d="M99.21,33.54l-4,3.15L84.6,43.08,66.13,51.71,43.28,60.46,25.39,66.78C38.26,62.1,51.16,57.53,63.86,52.4c10.55-4.26,27.21-11.26,36-19.41"/><text class="cls-3" transform="translate(0 25.72)">H<tspan class="cls-4" x="21.42" y="0">o</tspan><tspan x="34.99" y="0">verboard</tspan></text><text class="cls-5" transform="translate(0 39.8)">Urban mobility</text></g></g></svg>